<?xml version="1.0"?>
<svg version="1.1" xmlns="http://www.w3.org/2000/svg" width="400" height="200" style=""><path fill="#2a47c9" d="M22.552,125.075l0.472,3.835s2.065,0.59,4.956,0.59c3.245,0,4.838-1.003,4.838-2.891c0-4.838-15.753-3.068-15.753-13.57c0-7.375,5.9-10.089,12.154-10.089c5.31,0,10.974,1.77,10.974,1.77l-0.236,8.85l-5.015,0l-0.885-3.54s-1.711-0.59-4.071-0.59c-2.537,0-4.071,1.062-4.071,3.009c0,4.779,15.753,2.714,15.753,12.921c0,6.785-5.487,10.62-13.57,10.62c-5.605,0-10.856-1.298-10.856-1.298l0-9.617l5.31,0z M48.71909,108.555l0-4.72l13.57-0.295l0,20.355c0,3.245,0.944,4.72,3.599,4.72c3.835,0,6.667-3.186,6.667-3.186l0-15.399l-4.72-1.475l0-4.72l13.57-0.295l0,25.665l4.72,1.18l0,4.602l-12.449,0.413l-0.59-4.13s-4.72,4.72-10.325,4.72c-5.9,0-9.322-3.953-9.322-10.561l0-15.399z M148.51818,130.68l0,4.72l-15.989,0l0-4.72l3.127-1.475l0-14.042c0-3.245-0.944-4.838-3.422-4.838c-3.835,0-6.549,3.068-6.549,3.068l0,15.812l3.068,1.475l0,4.72l-14.986,0l0-4.72l3.068-1.475l0-14.042c0-3.245-0.826-4.838-3.363-4.838c-3.835,0-6.608,3.068-6.608,3.068l0,15.812l3.127,1.475l0,4.72l-16.52,0l0-4.72l4.543-1.475l0-19.175l-4.484-1.475l0-4.72l12.331-0.295l0.413,4.189s5.133-4.779,10.325-4.779c4.189,0,6.785,1.947,8.142,5.074c1.003-1.003,5.428-5.074,10.679-5.074c6.195,0,9.086,4.012,9.086,10.62l0,15.635z M211.20627,130.68l0,4.72l-15.989,0l0-4.72l3.127-1.475l0-14.042c0-3.245-0.944-4.838-3.422-4.838c-3.835,0-6.549,3.068-6.549,3.068l0,15.812l3.068,1.475l0,4.72l-14.986,0l0-4.72l3.068-1.475l0-14.042c0-3.245-0.826-4.838-3.363-4.838c-3.835,0-6.608,3.068-6.608,3.068l0,15.812l3.127,1.475l0,4.72l-16.52,0l0-4.72l4.543-1.475l0-19.175l-4.484-1.475l0-4.72l12.331-0.295l0.413,4.189s5.133-4.779,10.325-4.779c4.189,0,6.785,1.947,8.142,5.074c1.003-1.003,5.428-5.074,10.679-5.074c6.195,0,9.086,4.012,9.086,10.62l0,15.635z M238.96636,135.4l-1.062-3.835s-4.543,4.425-9.558,4.425c-5.723,0-9.204-3.363-9.204-9.263c0-6.962,5.251-9.735,14.219-9.735l4.13,0l0-3.245c0-3.009-1.593-4.307-4.543-4.307c-3.009,0-5.192,0.885-5.192,0.885l-0.885,3.717l-5.31,0l-0.413-8.732s7.139-2.36,12.803-2.36c8.968,0,12.39,3.127,12.39,11.682l0,14.573l4.425,1.062l0,4.72z M237.49136,122.007l-3.363,0c-4.602,0-6.431,1.18-6.431,3.835c0,2.242,1.239,3.54,3.481,3.54c3.127,0,6.313-3.422,6.313-3.422l0-3.953z M270.79745,103.54l0.531,4.071s4.248-4.661,8.201-4.661c3.245,0,5.487,1.062,5.487,1.062l-0.472,11.328l-5.31,0l-0.885-5.015c-3.422,0-6.372,3.304-6.372,3.304l0,15.576l5.9,1.475l0,4.72l-19.47,0l0-4.72l4.72-1.475l0-19.175l-4.72-1.475l0-4.72z M295.13554,93.805c0-3.363,2.419-5.31,5.074-5.31c3.068,0,4.956,1.593,4.956,5.31c0,3.481-2.537,5.369-4.956,5.369c-3.186,0-5.074-1.888-5.074-5.369z M305.04754,129.205l4.13,1.475l0,4.72l-17.7,0l0-4.72l4.72-1.475l0-19.175l-4.72-1.475l0-4.72l13.57-0.295l0,25.665z M342.89663,109.027l-14.75,19.883l8.614,0l1.003-5.015l5.31,0l0,11.505l-25.665,0l0-5.428l14.986-19.942l-8.083,0l-0.885,4.307l-5.31,0l0-10.797l24.78,0l0,5.487z M379.80172,121.417l-19.588,0c0.354,4.72,3.068,7.493,7.139,7.493c4.897,0,9.912-2.773,9.912-2.773l2.537,4.897s-5.9,4.956-13.452,4.956c-10.148,0-15.34-5.9-15.34-15.93c0-10.325,5.841-17.11,15.753-17.11c8.791,0,13.393,5.428,13.393,13.865c0,2.242-0.354,4.425-0.354,4.602z M360.33172,115.93l10.679,0c0-3.363-1.416-5.9-4.838-5.9c-3.304,0-5.369,2.419-5.841,5.9z"/><path fill="#" d=""/></svg>
